# AST/ASF file generated using VICON BodyLanguage
# -----------------------------------------------
:version 1.10
:name VICON
:units
  mass 1.0
  length 0.45
  angle deg
:documentation
   .ast/.asf automatically generated from VICON data using
   VICON BodyBuilder and BodyLanguage model FoxedUp or BRILLIANT.MOD
:root
   order TX TY TZ RX RY RZ
   axis XYZ
   position 0 0 0  
   orientation 0 0 0 
:bonedata
  begin
     id 1 
     name lhipjoint
     direction 0.702568 -0.596508 0.388042 
     length 2.56661 
     axis 0 0 0  XYZ
  end
  begin
     id 2 
     name lfemur
     direction 0.34202 -0.939693 0  
     length 6.58374  
     axis 0 0 20  XYZ
    dof rx ry rz
    limits (-160.0 20.0)
           (-70.0 70.0)
           (-60.0 70.0)
  end
  begin
     id 3 
     name ltibia
     direction 0.34202 -0.939693 0   
     length 6.62538   
     axis 0 0 20   XYZ
    dof rx
    limits (-10.0 170.0)
  end
  begin
     id 4 
     name lfoot
     direction 0.10455 -0.287249 0.952133   
     length 2.26699   
     axis -90 7.62852e-016 20   XYZ
    dof rx rz
    limits (-45.0 90.0)
           (-70.0 20.0)
  end
  begin
     id 5 
     name ltoes
     direction 1.53572e-011 -4.22322e-011 1   
     length 1.12949   
     axis -90 7.62852e-016 20   XYZ
    dof rx
    limits (-90.0 20.0)
  end
  begin
     id 6 
     name rhipjoint
     direction -0.728055 -0.574632 0.373811   
     length 2.66432  
     axis 0 0 0  XYZ 
  end
  begin
     id 7 
     name rfemur
     direction -0.34202 -0.939693 0   
     length 6.66732   
     axis 0 0 -20   XYZ
    dof rx ry rz
    limits (-160.0 20.0)
           (-70.0 70.0)
           (-70.0 60.0)
  end
  begin
     id 8 
     name rtibia
     direction -0.34202 -0.939693 0   
     length 6.59288   
     axis 0 0 -20   XYZ
    dof rx
    limits (-10.0 170.0)
 end
 begin
     id 9 
     name rfoot
     direction -0.119193 -0.327479 0.93731   
     length 2.38061  
     axis -90 -7.62852e-016 -20   XYZ
    dof rx rz
    limits (-45.0 90.0)
           (-20.0 70.0)
  end
  begin
     id 10 
     name rtoes
     direction -1.53547e-011 -4.21827e-011 1   
     length 1.17899   
     axis -90 -7.62852e-016 -20   XYZ
    dof rx
    limits (-90.0 20.0)
  end
  begin
     id 11 
     name lowerback
     direction -0.000416114 0.999912 -0.0132284   
     length 2.12109   
     axis 0 0 0   XYZ
    dof rx ry rz
    limits (-20.0 45.0)
           (-30.0 30.0)
           (-30.0 30.0)
  end
  begin
     id 12 
     name upperback
     direction -0.00136371 0.99809 0.0617608   
     length 2.10067   
     axis 0 0 0   XYZ
    dof rx ry rz
    limits (-20.0 45.0)
           (-30.0 30.0)
           (-30.0 30.0)
  end
  begin
     id 13 
     name thorax
     direction -3.43026e-005 0.997776 0.0666515   
     length 2.10618   
     axis 0 0 0   XYZ
    dof rx ry rz
    limits (-20.0 45.0)
           (-30.0 30.0)
           (-30.0 30.0)
  end
  begin
     id 14 
     name lowerneck
     direction 0.0398646 0.998418 0.0396592   
     length 1.83817   
     axis 0 0 0   XYZ
    dof rx ry rz
    limits (-20.0 45.0)
           (-30.0 30.0)
           (-30.0 30.0)
  end
  begin
     id 15 
     name upperneck
     direction -0.0367268 0.961527 -0.272244   
     length 1.81975   
     axis 0 0 0   XYZ
    dof rx ry rz
    limits (-20.0 45.0)
           (-30.0 30.0)
           (-30.0 30.0)
  end
  begin
     id 16
     name head
     direction -0.0182665 0.99536 -0.0944669  
     length 1.86026  
     axis 0 0 0   XYZ
    dof rx ry rz
    limits (-20.0 45.0)
           (-30.0 30.0)
           (-30.0 30.0)
  end
  begin
     id 17 
     name lclavicle
     direction 0.924239 0.361045 0.124212  
     length 3.26878  
     axis 0 0 0   XYZ
    dof ry rz
    limits (-20.0 10.0)
           (0.0 20.0)
  end
  begin
     id 18 
     name lhumerus
     direction 1 -4.48968e-011 -2.56583e-027   
     length 4.58538   
     axis 180 -30 -90   XYZ
    dof rx ry rz
    limits (-60.0 90.0)
           (-90.0 90.0)
           (-90.0 90.0)
  end
  begin
     id 19
     name lradius
     direction 1 -4.4898e-011 -5.50375e-027   
     length 2.68935   
     axis 180 -30 -90   XYZ
    dof rx
    limits (-10.0 170.0)
  end
  begin
     id 20
     name lwrist
     direction 1 -4.48939e-011 -1.48955e-026   
     length 1.34468   
     axis 9.0955e-015 90 90   XYZ
    dof ry
    limits (-180.0 0.0)
 end
  begin
     id 21 
     name lhand
     direction 1 -4.48936e-011 -2.97907e-026   
     length 0.585058   
     axis 1.90115e-014 90 90   XYZ
    dof rx rz
    limits (-90.0 90.0)
           (-45.0 45.0)
  end
  begin
     id 22 
     name lfingers
     direction 1 -4.49082e-011 -5.96235e-026   
     length 0.471689   
     axis 3.80223e-014 90 90   XYZ
    dof rx
    limits (0.0 90.0)
  end
  begin
     id 23
     name lthumb
     direction 0.707107 -6.3489e-011 0.707107   
     length 0.677253   
     axis -90 45 -3.84942e-014   XYZ
    dof rx rz
    limits (-45.0 45.0)
           (-45.0 45.0)
  end
  begin
     id 24 
     name rclavicle
     direction -0.923098 0.371783 0.0983239   
     length 3.19656  
     axis 0 0 0   XYZ 
    dof ry rz
    limits (-10.0 20.0)
           (-20.0 0.0)
  end
  begin
     id 25 
     name rhumerus
     direction -1 -4.48976e-011 -2.5492e-027  
     length 4.4745   
     axis 180 30 90   XYZ
    dof rx ry rz
    limits (-90.0 60.0)
           (-90.0 90.0)
           (-90.0 90.0)
  end
  begin
     id 26 
     name rradius
     direction -1 -4.48941e-011 -4.36555e-027   
     length 2.93896   
     axis 180 30 90   XYZ
    dof rx
    limits (-10.0 170.0)
  end
  begin
     id 27 
     name rwrist
     direction -1 -4.49044e-011 -1.49032e-026   
     length 1.46948   
     axis 9.0955e-015 -90 -90   XYZ
    dof ry
    limits (-180.0 0.0)
  end
  begin
     id 28
     name rhand
     direction -1 -4.48826e-011 -2.97749e-026   
     length 0.405092   
     axis 1.90115e-014 -90 -90   XYZ
    dof rx rz
    limits (-90.0 90.0)
           (-45.0 45.0)
  end
  begin
     id 29
     name rfingers
     direction -1 -4.49209e-011 -5.96602e-026   
     length 0.326596   
     axis 3.80223e-014 -90 -90   XYZ
    dof rx
    limits (0.0 90.0)
  end
  begin
     id 30
     name rthumb
     direction -0.707107 -6.34776e-011 0.707107   
     length 0.468928   
     axis -90 -45 3.84942e-014   XYZ
    dof rx rz
    limits (-45.0 45.0)
           (-45.0 45.0)
  end
:hierarchy
  begin
    root lhipjoint rhipjoint lowerback
    lhipjoint lfemur
    lfemur ltibia
    ltibia lfoot
    lfoot ltoes
    rhipjoint rfemur
    rfemur rtibia
    rtibia rfoot
    rfoot rtoes
    lowerback upperback
    upperback thorax
    thorax lowerneck lclavicle rclavicle
    lowerneck upperneck
    upperneck head
    lclavicle lhumerus
    lhumerus lradius
    lradius lwrist
    lwrist lhand lthumb
    lhand lfingers
    rclavicle rhumerus
    rhumerus rradius
    rradius rwrist
    rwrist rhand rthumb
    rhand rfingers
  end

#!OML:ASF H:\Punching\Project 1\Capture day 1\Session 1\female.ASF
:FULLY-SPECIFIED
:DEGREES
657
root 0.886441 14.935 11.919 15.5601 -12.2364 -3.36467
lowerback -1.49522 -0.285299 4.53546
upperback -7.6761 -0.277252 0.301832
thorax -7.2067 -0.430269 -2.20395
lowerneck -1.48558 11.642 19.9275
upperneck 26.7636 17.8902 -13.0411
head 12.1023 9.03361 -5.90288
rclavicle -1.81546e-014 6.55989e-015
rhumerus -59.583 16.5555 -69.6984
rradius 115.987
rwrist 22.6992
rhand -31.5706 18.1728
rfingers 7.12502
rthumb -4.8341 -11.7521
lclavicle -1.81546e-014 6.55989e-015
lhumerus 15.5903 28.8212 31.1604
lradius 93.4867
lwrist -17.8119
lhand -14.5401 4.50691
lfingers 7.12502
lthumb 11.6083 34.1654
rfemur 9.73525 5.4925 9.61822
rtibia 0
rfoot -15.5578 -22.6533
rtoes -14.2106
lfemur -44.7471 5.45591 -14.7326
ltibia 51.7018
lfoot -17.8782 9.05401
ltoes -1.72942
658
root 0.903275 14.9295 11.9596 15.66 -12.2863 -3.25514
lowerback -1.53573 -0.18201 4.51859
upperback -7.70087 -0.156717 0.016359
thorax -7.20282 -0.380356 -2.50019
lowerneck -1.50064 11.5989 19.9537
upperneck 26.9846 17.7336 -12.6578
head 12.124 8.99682 -5.78873
rclavicle 1.54493e-014 1.39149e-015
rhumerus -60.9305 15.6977 -70.3449
rradius 115.603
rwrist 22.7527
rhand -31.5741 18.3217
rfingers 7.12502
rthumb -4.83746 -11.603
lclavicle 1.54493e-014 1.39149e-015
lhumerus 15.4226 30.2772 30.9867
lradius 93.4838
lwrist -15.6338
lhand -14.7407 4.39298
lfingers 7.12502
lthumb 11.4148 34.0623
rfemur 9.69692 5.48144 9.49208
rtibia -2.22639e-014
rfoot -15.3244 -22.9159
rtoes -13.4947
lfemur -44.8684 5.37512 -14.9487
ltibia 51.9956
lfoot -18.0401 9.16498
ltoes -1.94939
659
root 0.918789 14.9242 11.9972 15.7493 -12.2898 -3.18157
lowerback -1.56992 -0.108629 4.50514
upperback -7.73621 -0.0732053 -0.223605
thorax -7.21604 -0.347992 -2.74885
lowerneck -1.52211 11.5617 19.9528
upperneck 27.3181 17.5845 -12.2238
head 12.187 8.96602 -5.65123
rclavicle -1.68532e-014 -9.93923e-016
rhumerus -62.0814 15.0393 -71.0842
rradius 115.356
rwrist 22.607
rhand -31.4659 18.4279
rfingers 7.12502
rthumb -4.73299 -11.4992
lclavicle -1.68532e-014 -9.93923e-016
lhumerus 15.3096 31.4999 30.9024
lradius 93.793
lwrist -13.8218
lhand -15.0095 4.2098
lfingers 7.12502
lthumb 11.1556 33.8933
rfemur 9.68307 5.43799 9.42257
rtibia -1.90833e-014
rfoot -15.0865 -23.1626
rtoes -12.8669
lfemur -44.9821 5.27816 -15.1141
ltibia 52.2684
lfoot -18.1826 9.26264
ltoes -2.16869
660
root 0.932888 14.9192 12.0313 15.8184 -12.2586 -3.12411
lowerback -1.61009 -0.0625874 4.46873
upperback -7.76055 -0.0254023 -0.425485
thorax -7.21586 -0.329986 -2.94307
lowerneck -1.57937 11.5402 19.94
upperneck 27.745 17.4515 -11.7562
head 12.2954 8.94401 -5.49497
rclavicle -1.81018e-014 -3.57812e-015
rhumerus -62.9919 14.5626 -71.9052
rradius 115.231
rwrist 22.2932
rhand -31.2689 18.5069
rfingers 7.12502
rthumb -4.54275 -11.4244
lclavicle -1.81018e-014 -3.57812e-015
lhumerus 15.2815 32.4799 30.9012
lradius 94.3184
lwrist -12.4922
lhand -15.222 4.03169
lfingers 7.12502
lthumb 10.9506 33.7261
rfemur 9.696 5.36996 9.38365
rtibia -1.59028e-014
rfoot -14.8826 -23.3875
rtoes -12.2833
lfemur -45.0799 5.16611 -15.25
ltibia 52.5217
lfoot -18.3168 9.35263
ltoes -2.3787
661
root 0.945651 14.914 12.0618 15.8775 -12.1847 -3.12945
lowerback -1.63778 -0.0468494 4.45039
upperback -7.79051 -0.0139793 -0.571357
thorax -7.23205 -0.329639 -3.08689
lowerneck -1.61786 11.5208 19.926
upperneck 28.2338 17.3268 -11.2811
head 12.4284 8.92873 -5.33578
rclavicle -1.41261e-014 5.1684e-015
rhumerus -63.6934 14.2935 -72.8017
rradius 115.219
rwrist 21.859
rhand -31.0185 18.5697
rfingers 7.12502
rthumb -4.30102 -11.3666
lclavicle -1.41261e-014 5.1684e-015
lhumerus 15.3113 33.1731 30.9377
lradius 94.9582
lwrist -11.6287
lhand -15.4628 3.84964
lfingers 7.12502
lthumb 10.7184 33.5562
rfemur 9.73302 5.28158 9.42488
rtibia -1.90833e-014
rfoot -14.7211 -23.5895
rtoes -11.7442
lfemur -45.17 5.04414 -15.3033
ltibia 52.7645
lfoot -18.4472 9.43357
ltoes -2.58002
662
root 0.957121 14.9087 12.0887 15.9229 -12.0737 -3.19353
lowerback -1.65855 -0.0587407 4.44795
upperback -7.81604 -0.0360972 -0.665588
thorax -7.25044 -0.345023 -3.18378
lowerneck -1.64312 11.5038 19.9147
upperneck 28.7589 17.2096 -10.8121
head 12.5789 8.91876 -5.17848
rclavicle 3.98812e-015 2.22639e-014
rhumerus -64.1697 14.2094 -73.7502
rradius 115.284
rwrist 21.3847
rhand -30.7547 18.631
rfingers 7.12502
rthumb -4.04626 -11.3103
lclavicle 3.98812e-015 2.22639e-014
lhumerus 15.4072 33.5684 30.9949
lradius 95.617
lwrist -11.1629
lhand -15.6387 3.69721
lfingers 7.12502
lthumb 10.5487 33.4125
rfemur 9.79579 5.17811 9.5384
rtibia 0
rfoot -14.6052 -23.7679
rtoes -11.277
lfemur -45.2464 4.90931 -15.2761
ltibia 52.9977
lfoot -18.5819 9.50525
ltoes -2.74318
663
root 0.967284 14.9031 12.1118 15.9533 -11.9341 -3.31906
lowerback -1.668 -0.0966992 4.46226
upperback -7.83396 -0.0892491 -0.704754
thorax -7.26994 -0.374698 -3.23063
lowerneck -1.6502 11.4872 19.9013
upperneck 29.2954 17.1022 -10.3699
head 12.7378 8.91266 -5.02991
rclavicle -3.30231e-014 3.97569e-015
rhumerus -64.4243 14.3073 -74.7173
rradius 115.391
rwrist 20.9651
rhand -30.5244 18.6895
rfingers 7.12502
rthumb -3.82388 -11.2559
lclavicle -3.30231e-014 3.97569e-015
lhumerus 15.5476 33.6697 31.043
lradius 96.2234
lwrist -10.974
lhand -15.7831 3.57801
lfingers 7.12502
lthumb 10.4094 33.3003
rfemur 9.88094 5.06845 9.7232
rtibia -3.49861e-014
rfoot -14.5059 -23.9221
rtoes -10.9302
lfemur -45.3062 4.76506 -15.1639
ltibia 53.2229
lfoot -18.7244 9.56837
ltoes -2.86264
664
root 0.976151 14.8977 12.131 15.968 -11.7715 -3.49892
lowerback -1.66255 -0.155599 4.49095
upperback -7.84743 -0.166543 -0.692254
thorax -7.29538 -0.415367 -3.22994
lowerneck -1.62687 11.4636 19.8804
upperneck 29.8271 16.9986 -9.96551
head 12.8949 8.90643 -4.89539
rclavicle -3.04389e-015 6.75868e-015
rhumerus -64.4798 14.5669 -75.6683
rradius 115.509
rwrist 20.6736
rhand -30.3601 18.7458
rfingers 7.12502
rthumb -3.66518 -11.2024
lclavicle -3.04389e-015 6.75868e-015
lhumerus 15.7188 33.4784 31.073
lradius 96.7245
lwrist -10.9466
lhand -15.8971 3.50782
lfingers 7.12502
lthumb 10.2994 33.2356
rfemur 9.98552 4.9559 9.96857
rtibia -9.54166e-015
rfoot -14.3993 -24.0479
rtoes -10.7249
lfemur -45.347 4.61346 -14.9746
ltibia 53.4344
lfoot -18.8678 9.62235
ltoes -2.9541
665
root 0.983653 14.8928 12.1463 15.9588 -11.6028 -3.70313
lowerback -1.64015 -0.226091 4.50917
upperback -7.85332 -0.256621 -0.64003
thorax -7.32295 -0.460034 -3.18078
lowerneck -1.57702 11.4302 19.8426
upperneck 30.341 16.8965 -9.60553
head 13.0443 8.89688 -4.7763
rclavicle -4.1869e-015 6.36111e-015
rhumerus -64.3553 14.9567 -76.5647
rradius 115.615
rwrist 20.5508
rhand -30.2801 18.7838
rfingers 7.12502
rthumb -3.58798 -11.1657
lclavicle -4.1869e-015 6.36111e-015
lhumerus 15.9102 33.0108 31.0912
lradius 97.0926
lwrist -10.9678
lhand -15.9603 3.51631
lfingers 7.12502
lthumb 10.2385 33.2471
rfemur 10.1067 4.84858 10.2379
rtibia -2.54444e-014
rfoot -14.2628 -24.1414
rtoes -10.6585
lfemur -45.3597 4.45847 -14.7423
ltibia 53.6238
lfoot -19.0005 9.6647
ltoes -3.0084
666
root 0.989647 14.8886 12.1573 15.9224 -11.4453 -3.90014
lowerback -1.60575 -0.295291 4.49419
upperback -7.84429 -0.344114 -0.56632
thorax -7.33988 -0.499793 -3.09035
lowerneck -1.52837 11.3862 19.7848
upperneck 30.8336 16.7904 -9.28998
head 13.1884 8.87981 -4.67164
rclavicle -1.9133e-015 -3.18055e-015
rhumerus -64.0679 15.4286 -77.3734
rradius 115.696
rwrist 20.5931
rhand -30.2824 18.7942
rfingers 7.12502
rthumb -3.59017 -11.1553
lclavicle -1.9133e-015 -3.18055e-015
lhumerus 16.1385 32.3026 31.1237
lradius 97.3203
lwrist -10.9716
lhand -16.0003 3.61392
lfingers 7.12502
lthumb 10.1999 33.3466
rfemur 10.2372 4.75393 10.4926
rtibia -6.36111e-015
rfoot -14.0893 -24.195
rtoes -10.6888
lfemur -45.3415 4.30916 -14.5044
ltibia 53.7799
lfoot -19.1051 9.69483
ltoes -3.0542
667
root 0.994196 14.8858 12.1642 15.8629 -11.3052 -4.07961
lowerback -1.55498 -0.354559 4.44449
upperback -7.82526 -0.417665 -0.479581
thorax -7.35291 -0.529497 -2.96731
lowerneck -1.48838 11.328 19.707
upperneck 31.3053 16.6749 -9.02042
head 13.3277 8.85222 -4.58281
rclavicle -8.18744e-015 -2.22639e-014
rhumerus -63.6563 15.9489 -78.0725
rradius 115.753
rwrist 20.761
rhand -30.3514 18.7547
rfingers 7.12502
rthumb -3.6568 -11.1937
lclavicle -8.18744e-015 -2.22639e-014
lhumerus 16.4036 31.3952 31.194
lradius 97.4221
lwrist -10.9241
lhand -16.018 3.78692
lfingers 7.12502
lthumb 10.1828 33.5205
rfemur 10.3691 4.67396 10.7197
rtibia 1.59028e-014
rfoot -13.8806 -24.2072
rtoes -10.7713
lfemur -45.2961 4.16799 -14.2749
ltibia 53.8981
lfoot -19.1662 9.71337
ltoes -3.11555
668
root 0.99729 14.885 12.167 15.7747 -11.2007 -4.19313
lowerback -1.50686 -0.396224 4.31891
upperback -7.7856 -0.470475 -0.401035
thorax -7.33816 -0.543207 -2.81147
lowerneck -1.4887 11.2652 19.6137
upperneck 31.7624 16.5565 -8.78815
head 13.4723 8.81691 -4.50396
rclavicle 6.75868e-015 -8.34896e-015
rhumerus -63.1301 16.4774 -78.6451
rradius 115.786
rwrist 20.9863
rhand -30.4494 18.6545
rfingers 7.12502
rthumb -3.75144 -11.2923
lclavicle 6.75868e-015 -8.34896e-015
lhumerus 16.7163 30.3542 31.3322
lradius 97.4292
lwrist -10.8156
lhand -15.8474 4.07477
lfingers 7.12502
lthumb 10.3473 33.8002
rfemur 10.4958 4.61282 10.8627
rtibia 4.13472e-014
rfoot -13.6552 -24.177
rtoes -10.8269
lfemur -45.2193 4.03766 -14.1112
ltibia 53.9722
lfoot -19.1821 9.72128
ltoes -3.17844
669
root 0.999101 14.8859 12.1662 15.6761 -11.121 -4.27642
lowerback -1.4569 -0.423292 4.15635
upperback -7.73948 -0.504422 -0.317358
thorax -7.31471 -0.544716 -2.63057
lowerneck -1.49709 11.1925 19.5127
upperneck 32.191 16.4363 -8.6083
head 13.6118 8.77484 -4.44427
rclavicle 5.28022e-015 6.36111e-015
rhumerus -62.5386 17.0209 -79.0922
rradius 115.81
rwrist 21.1886
rhand -30.5345 18.4946
rfingers 7.12502
rthumb -3.83358 -11.4506
lclavicle 5.28022e-015 6.36111e-015
lhumerus 17.0488 29.2249 31.5394
lradius 97.3734
lwrist -10.6337
lhand -15.615 4.39368
lfingers 7.12502
lthumb 10.5715 34.1078
rfemur 10.6065 4.56785 10.9617
rtibia 3.18055e-015
rfoot -13.4028 -24.1047
rtoes -10.8693
lfemur -45.1304 3.92495 -13.9758
ltibia 54.0096
lfoot -19.1515 9.71703
ltoes -3.25655
670
root 0.9998 14.8887 12.1622 15.5758 -11.0614 -4.33864
lowerback -1.41019 -0.4381 3.97193
upperback -7.69027 -0.522525 -0.229285
thorax -7.28411 -0.536716 -2.43377
lowerneck -1.50634 11.1122 19.4166
upperneck 32.5798 16.317 -8.48064
head 13.7415 8.72859 -4.40553
rclavicle 1.87852e-014 2.46493e-014
rhumerus -61.9012 17.562 -79.4245
rradius 115.821
rwrist 21.3011
rhand -30.5679 18.2914
rfingers 7.12502
rthumb -3.86585 -11.6533
lclavicle 1.87852e-014 2.46493e-014
lhumerus 17.3909 28.0483 31.8178
lradius 97.2871
lwrist -10.3785
lhand -15.4287 4.7087
lfingers 7.12502
lthumb 10.7513 34.4136
rfemur 10.6956 4.53609 11.0271
rtibia 2.22639e-014
rfoot -13.1201 -23.99
rtoes -10.9266
lfemur -45.0364 3.82893 -13.86
ltibia 54.012
lfoot -19.0767 9.70195
ltoes -3.35302
